<mxfile host="app.diagrams.net" agent="Mozilla/5.0 (iPhone; CPU iPhone OS 18_3_2 like Mac OS X) AppleWebKit/605.1.15 (KHTML, like Gecko) Version/18.3.1 Mobile/15E148 Safari/604.1" version="26.2.14">
  <diagram name="Minishell Structure" id="DtzABPRZCQtBg7FaXgdR">
    <mxGraphModel dx="737" dy="2210" grid="0" gridSize="10" guides="1" tooltips="1" connect="1" arrows="1" fold="1" page="0" pageScale="1" pageWidth="827" pageHeight="1169" math="0" shadow="0">
      <root>
        <mxCell id="0" />
        <mxCell id="1" parent="0" />
        <mxCell id="7zbYtxB0wOsQWNcl9e0u-2" value="Minishell" style="shape=ellipse;whiteSpace=wrap;html=1;" vertex="1" parent="1">
          <mxGeometry x="-150" y="507" width="132" height="110" as="geometry" />
        </mxCell>
        <mxCell id="7zbYtxB0wOsQWNcl9e0u-3" value="main()" style="shape=ellipse;whiteSpace=wrap;html=1;" vertex="1" tooltip="Entry point, starts the shell loop." parent="1">
          <mxGeometry x="256" y="67" width="120" height="70" as="geometry" />
        </mxCell>
        <mxCell id="7zbYtxB0wOsQWNcl9e0u-4" value="init_shell_data()" style="shape=ellipse;whiteSpace=wrap;html=1;" vertex="1" parent="1">
          <mxGeometry x="504" y="-93" width="120" height="40" as="geometry" />
        </mxCell>
        <mxCell id="7zbYtxB0wOsQWNcl9e0u-5" style="endArrow=none;" edge="1" parent="1" source="7zbYtxB0wOsQWNcl9e0u-3" target="7zbYtxB0wOsQWNcl9e0u-4">
          <mxGeometry relative="1" as="geometry" />
        </mxCell>
        <mxCell id="7zbYtxB0wOsQWNcl9e0u-6" value="shell_loop()" style="shape=ellipse;whiteSpace=wrap;html=1;" vertex="1" parent="1">
          <mxGeometry x="520" y="-3" width="120" height="40" as="geometry" />
        </mxCell>
        <mxCell id="7zbYtxB0wOsQWNcl9e0u-7" style="endArrow=none;" edge="1" parent="1" source="7zbYtxB0wOsQWNcl9e0u-3" target="7zbYtxB0wOsQWNcl9e0u-6">
          <mxGeometry relative="1" as="geometry" />
        </mxCell>
        <mxCell id="7zbYtxB0wOsQWNcl9e0u-8" value="free_all()" style="shape=ellipse;whiteSpace=wrap;html=1;" vertex="1" parent="1">
          <mxGeometry x="634" y="55" width="120" height="40" as="geometry" />
        </mxCell>
        <mxCell id="7zbYtxB0wOsQWNcl9e0u-9" style="endArrow=none;" edge="1" parent="1" source="7zbYtxB0wOsQWNcl9e0u-3" target="7zbYtxB0wOsQWNcl9e0u-8">
          <mxGeometry relative="1" as="geometry" />
        </mxCell>
        <mxCell id="7zbYtxB0wOsQWNcl9e0u-10" style="endArrow=none;" edge="1" parent="1" source="7zbYtxB0wOsQWNcl9e0u-2" target="7zbYtxB0wOsQWNcl9e0u-3">
          <mxGeometry relative="1" as="geometry">
            <Array as="points">
              <mxPoint x="152" y="336" />
            </Array>
          </mxGeometry>
        </mxCell>
        <mxCell id="7zbYtxB0wOsQWNcl9e0u-11" value="shell_loop()" style="shape=ellipse;whiteSpace=wrap;html=1;" vertex="1" tooltip="Main REPL loop: Read, Eval, Print, Loop." parent="1">
          <mxGeometry x="256" y="197" width="120" height="40" as="geometry" />
        </mxCell>
        <mxCell id="7zbYtxB0wOsQWNcl9e0u-12" value="read_line()" style="shape=ellipse;whiteSpace=wrap;html=1;" vertex="1" parent="1">
          <mxGeometry x="676" y="151" width="120" height="40" as="geometry" />
        </mxCell>
        <mxCell id="7zbYtxB0wOsQWNcl9e0u-13" style="endArrow=none;" edge="1" parent="1" source="7zbYtxB0wOsQWNcl9e0u-11" target="7zbYtxB0wOsQWNcl9e0u-12">
          <mxGeometry relative="1" as="geometry" />
        </mxCell>
        <mxCell id="7zbYtxB0wOsQWNcl9e0u-14" value="parse_line(line)" style="shape=ellipse;whiteSpace=wrap;html=1;" vertex="1" parent="1">
          <mxGeometry x="462" y="149" width="120" height="40" as="geometry" />
        </mxCell>
        <mxCell id="7zbYtxB0wOsQWNcl9e0u-15" style="endArrow=none;" edge="1" parent="1" source="7zbYtxB0wOsQWNcl9e0u-11" target="7zbYtxB0wOsQWNcl9e0u-14">
          <mxGeometry relative="1" as="geometry" />
        </mxCell>
        <mxCell id="7zbYtxB0wOsQWNcl9e0u-16" value="execute_line(parsed_data)" style="shape=ellipse;whiteSpace=wrap;html=1;" vertex="1" parent="1">
          <mxGeometry x="574" y="205" width="120" height="40" as="geometry" />
        </mxCell>
        <mxCell id="7zbYtxB0wOsQWNcl9e0u-17" style="endArrow=none;" edge="1" parent="1" source="7zbYtxB0wOsQWNcl9e0u-11" target="7zbYtxB0wOsQWNcl9e0u-16">
          <mxGeometry relative="1" as="geometry" />
        </mxCell>
        <mxCell id="7zbYtxB0wOsQWNcl9e0u-18" value="add_history(line)" style="shape=ellipse;whiteSpace=wrap;html=1;" vertex="1" parent="1">
          <mxGeometry x="420" y="247" width="120" height="48" as="geometry" />
        </mxCell>
        <mxCell id="7zbYtxB0wOsQWNcl9e0u-19" style="endArrow=none;" edge="1" parent="1" source="7zbYtxB0wOsQWNcl9e0u-11" target="7zbYtxB0wOsQWNcl9e0u-18">
          <mxGeometry relative="1" as="geometry" />
        </mxCell>
        <mxCell id="7zbYtxB0wOsQWNcl9e0u-20" style="endArrow=none;" edge="1" parent="1" source="7zbYtxB0wOsQWNcl9e0u-2" target="7zbYtxB0wOsQWNcl9e0u-11">
          <mxGeometry relative="1" as="geometry" />
        </mxCell>
        <mxCell id="7zbYtxB0wOsQWNcl9e0u-21" value="read_line()" style="shape=ellipse;whiteSpace=wrap;html=1;" vertex="1" tooltip="Reads input from user." parent="1">
          <mxGeometry x="256" y="297" width="120" height="40" as="geometry" />
        </mxCell>
        <mxCell id="7zbYtxB0wOsQWNcl9e0u-22" value="readline() or get_next_line()" style="shape=ellipse;whiteSpace=wrap;html=1;" vertex="1" parent="1">
          <mxGeometry x="718" y="247" width="120" height="52" as="geometry" />
        </mxCell>
        <mxCell id="7zbYtxB0wOsQWNcl9e0u-23" style="endArrow=none;" edge="1" parent="1" source="7zbYtxB0wOsQWNcl9e0u-21" target="7zbYtxB0wOsQWNcl9e0u-22">
          <mxGeometry relative="1" as="geometry" />
        </mxCell>
        <mxCell id="7zbYtxB0wOsQWNcl9e0u-24" style="endArrow=none;" edge="1" parent="1" source="7zbYtxB0wOsQWNcl9e0u-2" target="7zbYtxB0wOsQWNcl9e0u-21">
          <mxGeometry relative="1" as="geometry" />
        </mxCell>
        <mxCell id="7zbYtxB0wOsQWNcl9e0u-25" value="parse_line(line)" style="shape=ellipse;whiteSpace=wrap;html=1;" vertex="1" tooltip="Splits input into tokens, builds command structure." parent="1">
          <mxGeometry x="256" y="397" width="120" height="40" as="geometry" />
        </mxCell>
        <mxCell id="7zbYtxB0wOsQWNcl9e0u-27" value="is_operator(char)" style="shape=ellipse;whiteSpace=wrap;html=1;" vertex="1" parent="1">
          <mxGeometry x="726" y="470" width="120" height="40" as="geometry" />
        </mxCell>
        <mxCell id="7zbYtxB0wOsQWNcl9e0u-28" style="endArrow=none;" edge="1" parent="1" source="7zbYtxB0wOsQWNcl9e0u-26" target="7zbYtxB0wOsQWNcl9e0u-27">
          <mxGeometry relative="1" as="geometry" />
        </mxCell>
        <mxCell id="7zbYtxB0wOsQWNcl9e0u-29" value="create_token()" style="shape=ellipse;whiteSpace=wrap;html=1;" vertex="1" parent="1">
          <mxGeometry x="802" y="637" width="120" height="78" as="geometry" />
        </mxCell>
        <mxCell id="7zbYtxB0wOsQWNcl9e0u-30" style="endArrow=none;" edge="1" parent="1" source="7zbYtxB0wOsQWNcl9e0u-26" target="7zbYtxB0wOsQWNcl9e0u-29">
          <mxGeometry relative="1" as="geometry" />
        </mxCell>
        <mxCell id="7zbYtxB0wOsQWNcl9e0u-31" value="manage_quotes()" style="shape=ellipse;whiteSpace=wrap;html=1;" vertex="1" parent="1">
          <mxGeometry x="656" y="587" width="120" height="40" as="geometry" />
        </mxCell>
        <mxCell id="7zbYtxB0wOsQWNcl9e0u-32" style="endArrow=none;" edge="1" parent="1" source="7zbYtxB0wOsQWNcl9e0u-26" target="7zbYtxB0wOsQWNcl9e0u-31">
          <mxGeometry relative="1" as="geometry" />
        </mxCell>
        <mxCell id="7zbYtxB0wOsQWNcl9e0u-33" style="endArrow=none;" edge="1" parent="1" source="7zbYtxB0wOsQWNcl9e0u-25" target="7zbYtxB0wOsQWNcl9e0u-26">
          <mxGeometry relative="1" as="geometry" />
        </mxCell>
        <mxCell id="7zbYtxB0wOsQWNcl9e0u-34" value="parser(tokens)" style="shape=ellipse;whiteSpace=wrap;html=1;" vertex="1" tooltip="Parses tokens into command structure." parent="1">
          <mxGeometry x="818" y="321" width="120" height="40" as="geometry" />
        </mxCell>
        <mxCell id="7zbYtxB0wOsQWNcl9e0u-35" value="new_command_node()" style="shape=ellipse;whiteSpace=wrap;html=1;" vertex="1" parent="1">
          <mxGeometry x="910" y="527" width="120" height="48" as="geometry" />
        </mxCell>
        <mxCell id="7zbYtxB0wOsQWNcl9e0u-36" style="endArrow=none;" edge="1" parent="1" source="7zbYtxB0wOsQWNcl9e0u-34" target="7zbYtxB0wOsQWNcl9e0u-35">
          <mxGeometry relative="1" as="geometry" />
        </mxCell>
        <mxCell id="7zbYtxB0wOsQWNcl9e0u-37" value="append_argument()" style="shape=ellipse;whiteSpace=wrap;html=1;" vertex="1" parent="1">
          <mxGeometry x="924" y="413" width="120" height="62" as="geometry" />
        </mxCell>
        <mxCell id="7zbYtxB0wOsQWNcl9e0u-38" style="endArrow=none;" edge="1" parent="1" source="7zbYtxB0wOsQWNcl9e0u-34" target="7zbYtxB0wOsQWNcl9e0u-37">
          <mxGeometry relative="1" as="geometry" />
        </mxCell>
        <mxCell id="7zbYtxB0wOsQWNcl9e0u-39" value="set_redirection()" style="shape=ellipse;whiteSpace=wrap;html=1;" vertex="1" parent="1">
          <mxGeometry x="629" y="675" width="120" height="40" as="geometry" />
        </mxCell>
        <mxCell id="7zbYtxB0wOsQWNcl9e0u-40" style="endArrow=none;" edge="1" parent="1" source="7zbYtxB0wOsQWNcl9e0u-46" target="7zbYtxB0wOsQWNcl9e0u-39">
          <mxGeometry relative="1" as="geometry" />
        </mxCell>
        <mxCell id="7zbYtxB0wOsQWNcl9e0u-41" style="endArrow=none;" edge="1" parent="1" source="7zbYtxB0wOsQWNcl9e0u-25" target="7zbYtxB0wOsQWNcl9e0u-34">
          <mxGeometry relative="1" as="geometry" />
        </mxCell>
        <mxCell id="7zbYtxB0wOsQWNcl9e0u-42" value="syntax_checker(tree)" style="shape=ellipse;whiteSpace=wrap;html=1;" vertex="1" parent="1">
          <mxGeometry x="456" y="697" width="120" height="40" as="geometry" />
        </mxCell>
        <mxCell id="7zbYtxB0wOsQWNcl9e0u-43" style="endArrow=none;" edge="1" parent="1" source="7zbYtxB0wOsQWNcl9e0u-25" target="7zbYtxB0wOsQWNcl9e0u-42">
          <mxGeometry relative="1" as="geometry" />
        </mxCell>
        <mxCell id="7zbYtxB0wOsQWNcl9e0u-44" style="endArrow=none;" edge="1" parent="1" source="7zbYtxB0wOsQWNcl9e0u-2" target="7zbYtxB0wOsQWNcl9e0u-25">
          <mxGeometry relative="1" as="geometry" />
        </mxCell>
        <mxCell id="7zbYtxB0wOsQWNcl9e0u-45" value="execute_line(parsed_data)" style="shape=ellipse;whiteSpace=wrap;html=1;" vertex="1" tooltip="Handles command execution." parent="1">
          <mxGeometry x="256" y="497" width="120" height="40" as="geometry" />
        </mxCell>
        <mxCell id="7zbYtxB0wOsQWNcl9e0u-47" style="endArrow=none;" edge="1" parent="1" source="7zbYtxB0wOsQWNcl9e0u-45" target="7zbYtxB0wOsQWNcl9e0u-46">
          <mxGeometry relative="1" as="geometry" />
        </mxCell>
        <mxCell id="7zbYtxB0wOsQWNcl9e0u-48" value="execute_builtin(cmd)" style="shape=ellipse;whiteSpace=wrap;html=1;" vertex="1" parent="1">
          <mxGeometry x="456" y="697" width="120" height="40" as="geometry" />
        </mxCell>
        <mxCell id="7zbYtxB0wOsQWNcl9e0u-49" style="endArrow=none;" edge="1" parent="1" source="7zbYtxB0wOsQWNcl9e0u-45" target="7zbYtxB0wOsQWNcl9e0u-48">
          <mxGeometry relative="1" as="geometry" />
        </mxCell>
        <mxCell id="7zbYtxB0wOsQWNcl9e0u-50" value="execute_pipeline(cmds)" style="shape=ellipse;whiteSpace=wrap;html=1;" vertex="1" parent="1">
          <mxGeometry x="456" y="797" width="120" height="40" as="geometry" />
        </mxCell>
        <mxCell id="7zbYtxB0wOsQWNcl9e0u-51" style="endArrow=none;" edge="1" parent="1" source="7zbYtxB0wOsQWNcl9e0u-45" target="7zbYtxB0wOsQWNcl9e0u-50">
          <mxGeometry relative="1" as="geometry" />
        </mxCell>
        <mxCell id="7zbYtxB0wOsQWNcl9e0u-52" value="manage_redirections()" style="shape=ellipse;whiteSpace=wrap;html=1;" vertex="1" parent="1">
          <mxGeometry x="456" y="897" width="120" height="40" as="geometry" />
        </mxCell>
        <mxCell id="7zbYtxB0wOsQWNcl9e0u-53" style="endArrow=none;" edge="1" parent="1" source="7zbYtxB0wOsQWNcl9e0u-45" target="7zbYtxB0wOsQWNcl9e0u-52">
          <mxGeometry relative="1" as="geometry" />
        </mxCell>
        <mxCell id="7zbYtxB0wOsQWNcl9e0u-54" style="endArrow=none;" edge="1" parent="1" source="7zbYtxB0wOsQWNcl9e0u-2" target="7zbYtxB0wOsQWNcl9e0u-45">
          <mxGeometry relative="1" as="geometry" />
        </mxCell>
        <mxCell id="7zbYtxB0wOsQWNcl9e0u-55" value="execute_pipeline(cmds)" style="shape=ellipse;whiteSpace=wrap;html=1;" vertex="1" tooltip="Executes commands connected with pipes." parent="1">
          <mxGeometry x="256" y="597" width="120" height="40" as="geometry" />
        </mxCell>
        <mxCell id="7zbYtxB0wOsQWNcl9e0u-56" value="pipe()" style="shape=ellipse;whiteSpace=wrap;html=1;" vertex="1" parent="1">
          <mxGeometry x="604" y="863" width="120" height="64" as="geometry" />
        </mxCell>
        <mxCell id="7zbYtxB0wOsQWNcl9e0u-57" style="endArrow=none;" edge="1" parent="1" source="7zbYtxB0wOsQWNcl9e0u-55" target="7zbYtxB0wOsQWNcl9e0u-56">
          <mxGeometry relative="1" as="geometry" />
        </mxCell>
        <mxCell id="7zbYtxB0wOsQWNcl9e0u-58" value="fork()" style="shape=ellipse;whiteSpace=wrap;html=1;" vertex="1" parent="1">
          <mxGeometry x="456" y="797" width="120" height="40" as="geometry" />
        </mxCell>
        <mxCell id="7zbYtxB0wOsQWNcl9e0u-59" style="endArrow=none;" edge="1" parent="1" source="7zbYtxB0wOsQWNcl9e0u-55" target="7zbYtxB0wOsQWNcl9e0u-58">
          <mxGeometry relative="1" as="geometry" />
        </mxCell>
        <mxCell id="7zbYtxB0wOsQWNcl9e0u-60" value="dup2()" style="shape=ellipse;whiteSpace=wrap;html=1;" vertex="1" parent="1">
          <mxGeometry x="456" y="897" width="120" height="40" as="geometry" />
        </mxCell>
        <mxCell id="7zbYtxB0wOsQWNcl9e0u-61" style="endArrow=none;" edge="1" parent="1" source="7zbYtxB0wOsQWNcl9e0u-55" target="7zbYtxB0wOsQWNcl9e0u-60">
          <mxGeometry relative="1" as="geometry" />
        </mxCell>
        <mxCell id="7zbYtxB0wOsQWNcl9e0u-62" value="close()" style="shape=ellipse;whiteSpace=wrap;html=1;" vertex="1" parent="1">
          <mxGeometry x="456" y="997" width="120" height="40" as="geometry" />
        </mxCell>
        <mxCell id="7zbYtxB0wOsQWNcl9e0u-63" style="endArrow=none;" edge="1" parent="1" source="7zbYtxB0wOsQWNcl9e0u-55" target="7zbYtxB0wOsQWNcl9e0u-62">
          <mxGeometry relative="1" as="geometry" />
        </mxCell>
        <mxCell id="7zbYtxB0wOsQWNcl9e0u-64" value="waitpid()" style="shape=ellipse;whiteSpace=wrap;html=1;" vertex="1" parent="1">
          <mxGeometry x="456" y="1097" width="120" height="40" as="geometry" />
        </mxCell>
        <mxCell id="7zbYtxB0wOsQWNcl9e0u-65" style="endArrow=none;" edge="1" parent="1" source="7zbYtxB0wOsQWNcl9e0u-55" target="7zbYtxB0wOsQWNcl9e0u-64">
          <mxGeometry relative="1" as="geometry" />
        </mxCell>
        <mxCell id="7zbYtxB0wOsQWNcl9e0u-66" value="execute_cmd(cmd)" style="shape=ellipse;whiteSpace=wrap;html=1;" vertex="1" tooltip="Executes a single command." parent="1">
          <mxGeometry x="456" y="1197" width="120" height="40" as="geometry" />
        </mxCell>
        <mxCell id="7zbYtxB0wOsQWNcl9e0u-67" value="setup_redirections()" style="shape=ellipse;whiteSpace=wrap;html=1;" vertex="1" parent="1">
          <mxGeometry x="656" y="1297" width="120" height="40" as="geometry" />
        </mxCell>
        <mxCell id="7zbYtxB0wOsQWNcl9e0u-68" style="endArrow=none;" edge="1" parent="1" source="7zbYtxB0wOsQWNcl9e0u-66" target="7zbYtxB0wOsQWNcl9e0u-67">
          <mxGeometry relative="1" as="geometry" />
        </mxCell>
        <mxCell id="7zbYtxB0wOsQWNcl9e0u-69" value="execve()" style="shape=ellipse;whiteSpace=wrap;html=1;" vertex="1" parent="1">
          <mxGeometry x="656" y="1397" width="120" height="40" as="geometry" />
        </mxCell>
        <mxCell id="7zbYtxB0wOsQWNcl9e0u-70" style="endArrow=none;" edge="1" parent="1" source="7zbYtxB0wOsQWNcl9e0u-66" target="7zbYtxB0wOsQWNcl9e0u-69">
          <mxGeometry relative="1" as="geometry" />
        </mxCell>
        <mxCell id="7zbYtxB0wOsQWNcl9e0u-71" value="find_command_path()" style="shape=ellipse;whiteSpace=wrap;html=1;" vertex="1" parent="1">
          <mxGeometry x="656" y="1497" width="120" height="40" as="geometry" />
        </mxCell>
        <mxCell id="7zbYtxB0wOsQWNcl9e0u-72" style="endArrow=none;" edge="1" parent="1" source="7zbYtxB0wOsQWNcl9e0u-66" target="7zbYtxB0wOsQWNcl9e0u-71">
          <mxGeometry relative="1" as="geometry" />
        </mxCell>
        <mxCell id="7zbYtxB0wOsQWNcl9e0u-73" style="endArrow=none;" edge="1" parent="1" source="7zbYtxB0wOsQWNcl9e0u-55" target="7zbYtxB0wOsQWNcl9e0u-66">
          <mxGeometry relative="1" as="geometry" />
        </mxCell>
        <mxCell id="7zbYtxB0wOsQWNcl9e0u-74" style="endArrow=none;" edge="1" parent="1" source="7zbYtxB0wOsQWNcl9e0u-2" target="7zbYtxB0wOsQWNcl9e0u-55">
          <mxGeometry relative="1" as="geometry" />
        </mxCell>
        <mxCell id="7zbYtxB0wOsQWNcl9e0u-75" value="setup_redirections()" style="shape=ellipse;whiteSpace=wrap;html=1;" vertex="1" tooltip="Handles &lt;, &gt;, &gt;&gt;, &lt;&lt; redirections." parent="1">
          <mxGeometry x="256" y="697" width="120" height="40" as="geometry" />
        </mxCell>
        <mxCell id="7zbYtxB0wOsQWNcl9e0u-76" value="open()" style="shape=ellipse;whiteSpace=wrap;html=1;" vertex="1" parent="1">
          <mxGeometry x="456" y="797" width="120" height="40" as="geometry" />
        </mxCell>
        <mxCell id="7zbYtxB0wOsQWNcl9e0u-77" style="endArrow=none;" edge="1" parent="1" source="7zbYtxB0wOsQWNcl9e0u-75" target="7zbYtxB0wOsQWNcl9e0u-76">
          <mxGeometry relative="1" as="geometry" />
        </mxCell>
        <mxCell id="7zbYtxB0wOsQWNcl9e0u-78" value="dup2()" style="shape=ellipse;whiteSpace=wrap;html=1;" vertex="1" parent="1">
          <mxGeometry x="456" y="897" width="120" height="40" as="geometry" />
        </mxCell>
        <mxCell id="7zbYtxB0wOsQWNcl9e0u-79" style="endArrow=none;" edge="1" parent="1" source="7zbYtxB0wOsQWNcl9e0u-75" target="7zbYtxB0wOsQWNcl9e0u-78">
          <mxGeometry relative="1" as="geometry" />
        </mxCell>
        <mxCell id="7zbYtxB0wOsQWNcl9e0u-80" value="heredoc_handler()" style="shape=ellipse;whiteSpace=wrap;html=1;" vertex="1" parent="1">
          <mxGeometry x="456" y="997" width="120" height="40" as="geometry" />
        </mxCell>
        <mxCell id="7zbYtxB0wOsQWNcl9e0u-81" style="endArrow=none;" edge="1" parent="1" source="7zbYtxB0wOsQWNcl9e0u-75" target="7zbYtxB0wOsQWNcl9e0u-80">
          <mxGeometry relative="1" as="geometry" />
        </mxCell>
        <mxCell id="7zbYtxB0wOsQWNcl9e0u-82" style="endArrow=none;" edge="1" parent="1" source="7zbYtxB0wOsQWNcl9e0u-2" target="7zbYtxB0wOsQWNcl9e0u-75">
          <mxGeometry relative="1" as="geometry" />
        </mxCell>
        <mxCell id="7zbYtxB0wOsQWNcl9e0u-83" value="heredoc_handler()" style="shape=ellipse;whiteSpace=wrap;html=1;" vertex="1" tooltip="Handles here-document input." parent="1">
          <mxGeometry x="256" y="797" width="120" height="40" as="geometry" />
        </mxCell>
        <mxCell id="7zbYtxB0wOsQWNcl9e0u-84" value="open tmp file" style="shape=ellipse;whiteSpace=wrap;html=1;" vertex="1" parent="1">
          <mxGeometry x="456" y="897" width="120" height="40" as="geometry" />
        </mxCell>
        <mxCell id="7zbYtxB0wOsQWNcl9e0u-85" style="endArrow=none;" edge="1" parent="1" source="7zbYtxB0wOsQWNcl9e0u-83" target="7zbYtxB0wOsQWNcl9e0u-84">
          <mxGeometry relative="1" as="geometry" />
        </mxCell>
        <mxCell id="7zbYtxB0wOsQWNcl9e0u-86" value="write to it" style="shape=ellipse;whiteSpace=wrap;html=1;" vertex="1" parent="1">
          <mxGeometry x="456" y="997" width="120" height="40" as="geometry" />
        </mxCell>
        <mxCell id="7zbYtxB0wOsQWNcl9e0u-87" style="endArrow=none;" edge="1" parent="1" source="7zbYtxB0wOsQWNcl9e0u-83" target="7zbYtxB0wOsQWNcl9e0u-86">
          <mxGeometry relative="1" as="geometry" />
        </mxCell>
        <mxCell id="7zbYtxB0wOsQWNcl9e0u-88" value="read until EOF or limiter" style="shape=ellipse;whiteSpace=wrap;html=1;" vertex="1" parent="1">
          <mxGeometry x="456" y="1097" width="120" height="40" as="geometry" />
        </mxCell>
        <mxCell id="7zbYtxB0wOsQWNcl9e0u-89" style="endArrow=none;" edge="1" parent="1" source="7zbYtxB0wOsQWNcl9e0u-83" target="7zbYtxB0wOsQWNcl9e0u-88">
          <mxGeometry relative="1" as="geometry" />
        </mxCell>
        <mxCell id="7zbYtxB0wOsQWNcl9e0u-90" value="return fd" style="shape=ellipse;whiteSpace=wrap;html=1;" vertex="1" parent="1">
          <mxGeometry x="456" y="1197" width="120" height="40" as="geometry" />
        </mxCell>
        <mxCell id="7zbYtxB0wOsQWNcl9e0u-91" style="endArrow=none;" edge="1" parent="1" source="7zbYtxB0wOsQWNcl9e0u-83" target="7zbYtxB0wOsQWNcl9e0u-90">
          <mxGeometry relative="1" as="geometry" />
        </mxCell>
        <mxCell id="7zbYtxB0wOsQWNcl9e0u-92" style="endArrow=none;" edge="1" parent="1" source="7zbYtxB0wOsQWNcl9e0u-2" target="7zbYtxB0wOsQWNcl9e0u-83">
          <mxGeometry relative="1" as="geometry" />
        </mxCell>
        <mxCell id="7zbYtxB0wOsQWNcl9e0u-93" value="execute_builtin(cmd)" style="shape=ellipse;whiteSpace=wrap;html=1;" vertex="1" tooltip="Executes built-in shell commands." parent="1">
          <mxGeometry x="94" y="989" width="120" height="92" as="geometry" />
        </mxCell>
        <mxCell id="7zbYtxB0wOsQWNcl9e0u-94" value="builtin_cd()" style="shape=ellipse;whiteSpace=wrap;html=1;" vertex="1" parent="1">
          <mxGeometry x="244" y="999" width="120" height="40" as="geometry" />
        </mxCell>
        <mxCell id="7zbYtxB0wOsQWNcl9e0u-95" style="endArrow=none;" edge="1" parent="1" source="7zbYtxB0wOsQWNcl9e0u-93" target="7zbYtxB0wOsQWNcl9e0u-94">
          <mxGeometry relative="1" as="geometry" />
        </mxCell>
        <mxCell id="7zbYtxB0wOsQWNcl9e0u-96" value="builtin_echo()" style="shape=ellipse;whiteSpace=wrap;html=1;" vertex="1" parent="1">
          <mxGeometry x="256" y="1059" width="120" height="40" as="geometry" />
        </mxCell>
        <mxCell id="7zbYtxB0wOsQWNcl9e0u-97" style="endArrow=none;" edge="1" parent="1" source="7zbYtxB0wOsQWNcl9e0u-93" target="7zbYtxB0wOsQWNcl9e0u-96">
          <mxGeometry relative="1" as="geometry" />
        </mxCell>
        <mxCell id="7zbYtxB0wOsQWNcl9e0u-98" value="builtin_pwd()" style="shape=ellipse;whiteSpace=wrap;html=1;" vertex="1" parent="1">
          <mxGeometry x="282" y="1133" width="120" height="40" as="geometry" />
        </mxCell>
        <mxCell id="7zbYtxB0wOsQWNcl9e0u-99" style="endArrow=none;" edge="1" parent="1" source="7zbYtxB0wOsQWNcl9e0u-93" target="7zbYtxB0wOsQWNcl9e0u-98">
          <mxGeometry relative="1" as="geometry" />
        </mxCell>
        <mxCell id="7zbYtxB0wOsQWNcl9e0u-101" style="endArrow=none;" edge="1" parent="1" source="7zbYtxB0wOsQWNcl9e0u-93" target="7zbYtxB0wOsQWNcl9e0u-100">
          <mxGeometry relative="1" as="geometry" />
        </mxCell>
        <mxCell id="7zbYtxB0wOsQWNcl9e0u-103" style="endArrow=none;" edge="1" parent="1" source="7zbYtxB0wOsQWNcl9e0u-100" target="7zbYtxB0wOsQWNcl9e0u-102">
          <mxGeometry relative="1" as="geometry" />
        </mxCell>
        <mxCell id="7zbYtxB0wOsQWNcl9e0u-104" value="builtin_env()" style="shape=ellipse;whiteSpace=wrap;html=1;" vertex="1" parent="1">
          <mxGeometry x="470" y="1483" width="120" height="14" as="geometry" />
        </mxCell>
        <mxCell id="7zbYtxB0wOsQWNcl9e0u-105" style="endArrow=none;" edge="1" parent="1" source="7zbYtxB0wOsQWNcl9e0u-102" target="7zbYtxB0wOsQWNcl9e0u-104">
          <mxGeometry relative="1" as="geometry" />
        </mxCell>
        <mxCell id="7zbYtxB0wOsQWNcl9e0u-106" value="builtin_exit()" style="shape=ellipse;whiteSpace=wrap;html=1;" vertex="1" parent="1">
          <mxGeometry x="312" y="1493" width="120" height="70" as="geometry" />
        </mxCell>
        <mxCell id="7zbYtxB0wOsQWNcl9e0u-107" style="endArrow=none;" edge="1" parent="1" source="7zbYtxB0wOsQWNcl9e0u-93" target="7zbYtxB0wOsQWNcl9e0u-106">
          <mxGeometry relative="1" as="geometry" />
        </mxCell>
        <mxCell id="7zbYtxB0wOsQWNcl9e0u-108" style="endArrow=none;" edge="1" parent="1" source="7zbYtxB0wOsQWNcl9e0u-2" target="7zbYtxB0wOsQWNcl9e0u-93">
          <mxGeometry relative="1" as="geometry" />
        </mxCell>
        <mxCell id="7zbYtxB0wOsQWNcl9e0u-109" value="free_all()" style="shape=ellipse;whiteSpace=wrap;html=1;" vertex="1" tooltip="Frees memory and resources." parent="1">
          <mxGeometry x="28" y="1161" width="120" height="40" as="geometry" />
        </mxCell>
        <mxCell id="7zbYtxB0wOsQWNcl9e0u-110" value="free_tokens()" style="shape=ellipse;whiteSpace=wrap;html=1;" vertex="1" parent="1">
          <mxGeometry x="172" y="1395" width="120" height="40" as="geometry" />
        </mxCell>
        <mxCell id="7zbYtxB0wOsQWNcl9e0u-111" style="endArrow=none;" edge="1" parent="1" source="7zbYtxB0wOsQWNcl9e0u-109" target="7zbYtxB0wOsQWNcl9e0u-110">
          <mxGeometry relative="1" as="geometry" />
        </mxCell>
        <mxCell id="7zbYtxB0wOsQWNcl9e0u-112" value="free_ast()" style="shape=ellipse;whiteSpace=wrap;html=1;" vertex="1" parent="1">
          <mxGeometry x="-84" y="1285" width="120" height="40" as="geometry" />
        </mxCell>
        <mxCell id="7zbYtxB0wOsQWNcl9e0u-113" style="endArrow=none;" edge="1" parent="1" source="7zbYtxB0wOsQWNcl9e0u-109" target="7zbYtxB0wOsQWNcl9e0u-112">
          <mxGeometry relative="1" as="geometry" />
        </mxCell>
        <mxCell id="7zbYtxB0wOsQWNcl9e0u-114" value="free_env()" style="shape=ellipse;whiteSpace=wrap;html=1;" vertex="1" parent="1">
          <mxGeometry x="-68" y="1431" width="120" height="48" as="geometry" />
        </mxCell>
        <mxCell id="7zbYtxB0wOsQWNcl9e0u-115" style="endArrow=none;" edge="1" parent="1" source="7zbYtxB0wOsQWNcl9e0u-109" target="7zbYtxB0wOsQWNcl9e0u-114">
          <mxGeometry relative="1" as="geometry" />
        </mxCell>
        <mxCell id="7zbYtxB0wOsQWNcl9e0u-116" value="close_fds()" style="shape=ellipse;whiteSpace=wrap;html=1;" vertex="1" parent="1">
          <mxGeometry x="72" y="1481" width="120" height="46" as="geometry" />
        </mxCell>
        <mxCell id="7zbYtxB0wOsQWNcl9e0u-117" style="endArrow=none;" edge="1" parent="1" source="7zbYtxB0wOsQWNcl9e0u-109" target="7zbYtxB0wOsQWNcl9e0u-116">
          <mxGeometry relative="1" as="geometry" />
        </mxCell>
        <mxCell id="7zbYtxB0wOsQWNcl9e0u-118" style="endArrow=none;" edge="1" parent="1" source="7zbYtxB0wOsQWNcl9e0u-2" target="7zbYtxB0wOsQWNcl9e0u-109">
          <mxGeometry relative="1" as="geometry" />
        </mxCell>
        <mxCell id="7zbYtxB0wOsQWNcl9e0u-119" value="" style="endArrow=none;" edge="1" parent="1" source="7zbYtxB0wOsQWNcl9e0u-26" target="7zbYtxB0wOsQWNcl9e0u-46">
          <mxGeometry relative="1" as="geometry">
            <mxPoint x="529" y="637" as="sourcePoint" />
            <mxPoint x="703" y="897" as="targetPoint" />
          </mxGeometry>
        </mxCell>
        <mxCell id="7zbYtxB0wOsQWNcl9e0u-46" value="is_builtin(cmd)" style="shape=ellipse;whiteSpace=wrap;html=1;" vertex="1" parent="1">
          <mxGeometry x="522" y="493" width="120" height="40" as="geometry" />
        </mxCell>
        <mxCell id="7zbYtxB0wOsQWNcl9e0u-120" value="" style="endArrow=none;" edge="1" parent="1" source="7zbYtxB0wOsQWNcl9e0u-34" target="7zbYtxB0wOsQWNcl9e0u-26">
          <mxGeometry relative="1" as="geometry">
            <mxPoint x="844" y="361" as="sourcePoint" />
            <mxPoint x="616" y="493" as="targetPoint" />
          </mxGeometry>
        </mxCell>
        <mxCell id="7zbYtxB0wOsQWNcl9e0u-26" value="lexer(line)" style="shape=ellipse;whiteSpace=wrap;html=1;" vertex="1" tooltip="Lexical analysis of input line." parent="1">
          <mxGeometry x="626" y="400" width="120" height="50" as="geometry" />
        </mxCell>
        <mxCell id="7zbYtxB0wOsQWNcl9e0u-122" value="" style="endArrow=none;" edge="1" parent="1" source="7zbYtxB0wOsQWNcl9e0u-93" target="7zbYtxB0wOsQWNcl9e0u-100">
          <mxGeometry relative="1" as="geometry">
            <mxPoint x="198" y="1081" as="sourcePoint" />
            <mxPoint x="497" y="1397" as="targetPoint" />
          </mxGeometry>
        </mxCell>
        <mxCell id="7zbYtxB0wOsQWNcl9e0u-100" value="builtin_export()" style="shape=ellipse;whiteSpace=wrap;html=1;" vertex="1" parent="1">
          <mxGeometry x="282" y="1209" width="120" height="40" as="geometry" />
        </mxCell>
        <mxCell id="7zbYtxB0wOsQWNcl9e0u-123" value="" style="endArrow=none;" edge="1" parent="1" source="7zbYtxB0wOsQWNcl9e0u-93" target="7zbYtxB0wOsQWNcl9e0u-102">
          <mxGeometry relative="1" as="geometry">
            <mxPoint x="189" y="1081" as="sourcePoint" />
            <mxPoint x="501" y="1497" as="targetPoint" />
          </mxGeometry>
        </mxCell>
        <mxCell id="7zbYtxB0wOsQWNcl9e0u-102" value="builtin_unset()" style="shape=ellipse;whiteSpace=wrap;html=1;" vertex="1" parent="1">
          <mxGeometry x="358" y="1319" width="120" height="76" as="geometry" />
        </mxCell>
      </root>
    </mxGraphModel>
  </diagram>
</mxfile>
